<svg width="36" height="32" viewBox="0 0 36 32" fill="none" xmlns="http://www.w3.org/2000/svg">
<path fill-rule="evenodd" clip-rule="evenodd" d="M6.56597 4.15933C2.38618 5.59131 -0.267554 10.2577 0.638683 14.5821L1.64607 19.389C2.43557 23.1564 5.66652 25.4212 9.24949 24.9953L9.51774 26.2754C10.424 30.5997 14.547 32.9444 18.7268 31.5125L29.6024 27.7865C33.7822 26.3545 36.4359 21.6881 35.5297 17.3638L34.5223 12.5568C33.7328 8.78948 30.5018 6.52463 26.9189 6.9505L26.6506 5.67047C25.7444 1.34613 21.6214 -0.998594 17.4416 0.433386L6.56597 4.15933ZM26.9189 6.9505C26.3891 7.01347 25.8516 7.13526 25.3132 7.31971L14.4376 11.0457C10.2579 12.4776 7.60412 17.1441 8.51036 21.4684L9.24949 24.9953C9.77926 24.9324 10.3167 24.8106 10.8551 24.6261L21.7307 20.9002C25.9105 19.4682 28.5642 14.8018 27.658 10.4774L26.9189 6.9505Z" fill="#FF989A"/>
</svg>
