<svg width="74" height="68" viewBox="0 0 74 68" fill="none" xmlns="http://www.w3.org/2000/svg">
<path fill-rule="evenodd" clip-rule="evenodd" d="M9.15712 11.0127C2.88744 13.1606 -1.09316 20.1603 0.266193 26.6468L4.08423 44.8655C5.44359 51.352 11.6281 54.8691 17.8978 52.7212L18.7684 52.4229L20.1255 58.8989C21.4849 65.3854 27.6694 68.9025 33.9391 66.7545L64.2433 56.3724C70.513 54.2244 74.4936 47.2248 73.1342 40.7383L69.3162 22.5195C67.9568 16.033 61.7723 12.5159 55.5026 14.6639L54.632 14.9622L53.2749 8.48618C51.9155 1.99967 45.731 -1.51741 39.4613 0.630556L9.15712 11.0127ZM54.632 14.9622L25.1984 25.046C18.9287 27.194 14.9481 34.1936 16.3075 40.6801L18.7684 52.4229L48.202 42.339C54.4717 40.1911 58.4523 33.1914 57.0929 26.7049L54.632 14.9622Z" fill="#494949"/>
</svg>
